# xmcd
#
# Track frame offsets:
#	150
#	16247
#	29311
#	41709
#	56557
#	77033
#	93916
#	105485
#	124757
#	143160
#	158255
#	174073
#	190580
#	209460
#
# Disc length: 3018 seconds
#
# Revision: 0
# Processed by: cddbd v1.5PL3 Copyright (c) Steve Scherf et al.
# Submitted via: audiograbber 1.82.02
#
DISCID=a30bc80e
DTITLE=KENNY ROGERS - THE COUNTRY LEGEND
DYEAR=1900
DGENRE=
TTITLE0=Lucille
TTITLE1=Ruby, don´t take your Love to Town
TTITLE2=Ruben James
TTITLE3=Heed the Call
TTITLE4=Coward of the Country
TTITLE5=Don´t Fall in Love with a Dreamer
TTITLE6=Poem for my Little Lady
TTITLE7=She believes in me
TTITLE8=Something´s Burning
TTITLE9=Tell it all Brother
TTITLE10=The Cambler
TTITLE11=You Decorated my Life
TTITLE12=Island in the Stream
TTITLE13=Lady
EXTD=
EXTT0=
EXTT1=
EXTT2=
EXTT3=
EXTT4=
EXTT5=
EXTT6=
EXTT7=
EXTT8=
EXTT9=
EXTT10=
EXTT11=
EXTT12=
EXTT13=
PLAYORDER=
